<?xml version="1.0" encoding="iso-8859-1"?>
<!-- Generator: Adobe Illustrator 19.0.0, SVG Export Plug-In . SVG Version: 6.00 Build 0)  -->
<svg version="1.1" id="Layer_1" xmlns="http://www.w3.org/2000/svg" xmlns:xlink="http://www.w3.org/1999/xlink" x="0px" y="0px"
	 viewBox="0 0 512 512" style="enable-background:new 0 0 512 512;" xml:space="preserve">
<circle style="fill:#FFC91B;" cx="256" cy="256" r="256"/>
<g>
	<path style="fill:#CC960D;" d="M510.835,280.405L406.543,176.597L105.346,363.729L252.799,511.96
		c1.067,0.014,2.131,0.04,3.201,0.04C389.151,512,498.545,410.341,510.835,280.405z"/>
	<polygon style="fill:#CC960D;" points="315.073,132.506 371.359,188.337 259.736,196.525 201.985,181.01 197.675,154.29 
		204.571,131.017 	"/>
</g>
<path style="fill:#FF5419;" d="M301.109,199.111h-90.219c-10.773,0-19.537-8.764-19.537-19.537v-33.33
	c0-10.773,8.764-19.537,19.537-19.537h90.219c10.773,0,19.537,8.764,19.537,19.537v33.33
	C320.646,190.347,311.882,199.111,301.109,199.111z M210.891,142.222c-2.217,0-4.022,1.805-4.022,4.022v33.33
	c0,2.217,1.805,4.022,4.022,4.022h90.219c2.217,0,4.022-1.805,4.022-4.022v-33.33c0-2.217-1.805-4.022-4.022-4.022H210.891z"/>
<path style="fill:#FF0F27;" d="M301.109,126.707h-45.683v15.515h45.683c2.217,0,4.022,1.805,4.022,4.022v33.33
	c0,2.217-1.805,4.022-4.022,4.022h-45.683v15.515h45.683c10.773,0,19.537-8.764,19.537-19.537v-33.33
	C320.646,135.471,311.882,126.707,301.109,126.707z"/>
<path style="fill:#87270A;" d="M119.739,369.778h272.52c11.147,0,20.184-9.037,20.184-20.184V190.852
	c0-11.147-9.037-20.185-20.184-20.185h-272.52c-11.147,0-20.183,9.037-20.183,20.185v158.742
	C99.556,360.741,108.592,369.778,119.739,369.778z"/>
<path style="fill:#631806;" d="M392.259,170.667H255.424v199.111h136.835c11.147,0,20.183-9.037,20.183-20.184V190.852
	C412.444,179.703,403.408,170.667,392.259,170.667z"/>
<g>
	
		<rect x="137.775" y="223.109" transform="matrix(-0.9757 0.2192 -0.2192 -0.9757 393.5083 426.1208)" style="fill:#FF6262;" width="70.682" height="23.561"/>
	<path style="fill:#FF6262;" d="M377.484,335.991l-56.839-4.301c-3.767-0.284-6.59-3.57-6.304-7.337l0.745-9.852
		c0.284-3.767,3.57-6.59,7.337-6.304l56.839,4.301c3.767,0.284,6.59,3.57,6.304,7.337l-0.745,9.852
		C384.536,333.453,381.25,336.275,377.484,335.991z"/>
</g>
<rect x="156.209" y="267.538" transform="matrix(-0.9997 -0.0249 0.0249 -0.9997 351.6839 554.8472)" style="fill:#FF5419;" width="46.175" height="15.393"/>
<path style="fill:#FFAD9E;" d="M256,312.211c12.717,0,43.96-33.335,43.96-46.052c0-12.717-10.309-23.026-23.026-23.026
	c-9.306,0-17.301,5.53-20.933,13.474c-3.632-7.944-11.628-13.474-20.933-13.474c-12.717,0-23.026,10.309-23.026,23.026
	C212.04,278.876,243.283,312.211,256,312.211z"/>
<path style="fill:#FF6262;" d="M276.933,243.133c-9.306,0-17.301,5.53-20.933,13.474c-0.178-0.39-0.376-0.769-0.574-1.146v56.708
	c0.191,0.014,0.391,0.045,0.574,0.045c12.717,0,43.96-33.335,43.96-46.052C299.96,253.443,289.651,243.133,276.933,243.133z"/>
<g>
	<path style="fill:#FF5419;" d="M412.444,199.089v-8.239c0-11.147-9.037-20.183-20.184-20.183h-7.83
		C384.431,186.23,396.936,198.856,412.444,199.089z"/>
	<path style="fill:#FF5419;" d="M412.444,349.594v-8.239c-15.508,0.233-28.013,12.859-28.013,28.422h7.83
		C403.408,369.778,412.444,360.741,412.444,349.594z"/>
	<path style="fill:#FF5419;" d="M127.569,170.667h-7.83c-11.147,0-20.183,9.037-20.183,20.183v8.239
		C115.064,198.856,127.569,186.23,127.569,170.667z"/>
	<path style="fill:#FF5419;" d="M99.556,341.356v8.239c0,11.147,9.037,20.183,20.183,20.183h7.83
		C127.569,354.214,115.064,341.588,99.556,341.356z"/>
</g>
<g>
</g>
<g>
</g>
<g>
</g>
<g>
</g>
<g>
</g>
<g>
</g>
<g>
</g>
<g>
</g>
<g>
</g>
<g>
</g>
<g>
</g>
<g>
</g>
<g>
</g>
<g>
</g>
<g>
</g>
</svg>
